<?xml version="1.0" encoding="utf-8"?>
<!-- Generator: Adobe Illustrator 24.3.0, SVG Export Plug-In . SVG Version: 6.00 Build 0)  -->
<svg version="1.1" id="Layer_1" xmlns="http://www.w3.org/2000/svg" xmlns:xlink="http://www.w3.org/1999/xlink" x="0px" y="0px"
	 viewBox="0 0 40 40" style="enable-background:new 0 0 40 40;" xml:space="preserve">
<style type="text/css">
	.st0{fill:#001120;}
	.st1{fill:#FFFFFF;}
	.st2{fill:#01A3EB;}
	.st3{fill:#DB0084;}
</style>
<g id="Layer_2_1_">
	<g id="Layer_1-2">
		<path class="st0" d="M8.9,0h22.2C36,0,40,4,40,8.9v22.2c0,4.9-4,8.9-8.9,8.9H8.9C4,40,0,36,0,31.1V8.9C0,4,4,0,8.9,0z"/>
		<path class="st1" d="M26.6,36.5c1,0,2,0.1,2.5,0.1c1,0.2,1.9-0.5,2-1.4c0-0.1,0-0.2,0-0.3c0-0.5,0.1-1-0.1-1.5
			c-0.1-0.3,0.1-0.5,0.3-0.8s0.4-0.5,0.3-0.8c-0.2-0.5-0.4-0.6-1.5-1c-0.3-0.1-0.7-0.4-0.9-0.6c-0.2-0.3,0.1-0.3,0.3-0.3
			c0.6-0.1,1.2-0.2,1.7-0.4c0.3-0.1,0.6-0.2,0.9-0.4c0.3-0.2,0.1-0.6,0-0.9c-0.1-0.3-0.1-0.4-0.2-0.9s0.3-0.9,0.8-1
			c0.4,0,0.8-0.2,1.1-0.6c0.3-0.3,0.3-0.7,0.2-1c-0.2-0.3-0.5-0.6-0.7-0.8s-0.7-0.9-1.1-1.2c-0.4-0.3-0.7-0.6-1.1-1
			c-0.3-0.3-0.3-0.4-0.3-1.1c0-0.7-0.1-1.4-0.4-2.1c-0.3-0.7-0.6-1.5-0.9-2.2c-0.3-1-0.8-2-1.5-2.8c0,0,1-1.2,0.5-2.1
			s-0.8-1.2-0.8-1.6s0,0-0.2,0.1s-0.3-0.2-0.3-0.4S27.1,9.2,27,9s-0.1,0.2,0,0.3s0.2,0.2,0.1,0.3s-0.5-0.2-0.5-0.4S26.3,9.2,26.3,9
			s0-0.3-0.2-0.1s-0.2-0.1-0.2-0.3S25.5,9,25.6,8.7s0-0.6,0.1-0.7s-0.2,0.1-0.5,0.4s-0.6,0.3-0.5-0.1s-0.1-0.2-0.3,0.2
			s0.2-0.7,0.2-0.8s-0.3,0.8-0.5,0.6s0-0.5,0.1-0.8s0-0.2-0.2,0.2s-0.6,0.5-0.4,0.1s-0.2,0-0.1-0.4s-0.2,0.7-0.2,0.3s0-0.6-0.2-0.2
			S22.2,8.3,22.2,8s0.2-0.3,0.3-0.4s-0.2,0-0.5,0.2s-0.3-0.1-0.2-0.3s-0.1,0-0.3,0.3S21.2,8,21.4,7.5S21.1,7.9,21,8
			c-0.1,0.1,0-0.4-0.2-0.1s-0.4,0.3-0.2-0.1s0.5-0.5,0.1-0.3s-0.2-0.1-0.2-0.3s-0.2,0.5-0.2,0s0,0.3-0.2,0.6s-0.3,0.5-0.2,0
			s-0.2,0.3-0.3,0.4S19,8.6,19.1,8.4s0.2-0.2,0.2-0.5s0.1-0.6-0.1-0.2c-0.2,0.3-0.4,0.4-0.5,0.6s-0.1,0,0-0.3s0-0.2-0.2,0.1
			s-0.4,0.4-0.3,0.1S18.1,7.7,18,7.9s-0.4,0.5-0.4,0.2s0,0.3-0.2,0.4s-0.1-0.2-0.1-0.4S17,8.4,16.9,8.7s-0.2-0.2,0-0.6
			s-0.3,0.3-0.4,0.6s-0.2,0.1-0.2-0.2s-0.1-0.2-0.3,0.3s-0.3,0.1-0.2-0.2s-0.4,0.6-0.2,0.1S15.4,9.1,15.4,9s-0.1-0.2-0.3,0.1
			s-0.1-0.2,0.1-0.6s-0.3,0.4-0.4,0.7S14.5,9,14.6,8.6s0.1-0.7-0.1-0.3c-0.1,0.3-0.2,0.7-0.3,1.1c0,0.3-0.2,0.2-0.2-0.3
			s-0.3,0.9-0.2,0.3c0.1-0.3,0-0.6-0.1-0.9c0,0.3,0,0.6-0.1,0.8c-0.1,0.4-0.3,1-0.4,0.8s0.1-0.2,0-0.7S13.3,8.6,13.2,9
			s-0.1,1.1-0.2,0.8s-0.2-1.1-0.2-0.9s0,0.9-0.1,0.6c-0.1-0.1-0.2-0.3-0.2-0.4c0,0,0.2,0.5,0.1,0.7s-0.3,0.1-0.4-0.2
			s-0.1,0.7-0.1,0.3s0-1-0.1-0.5s0,0.8-0.1,1s-0.1-0.5-0.1,0.2s-0.2,0.2-0.3-0.1c-0.1-0.4-0.1-0.7-0.1-1.1c0,0-0.1,0.6-0.2,0.4
			c-0.1-0.2-0.2-0.3-0.4-0.4c0.2,0.3,0.3,0.5,0.4,0.8c0.1,0.2-0.1,0.8-0.1,0.4s-0.1-0.9-0.2-0.6s-0.3,0.7-0.4,0.5s-0.2,0-0.1,0.2
			s-0.3-0.1-0.3-0.1s0.7,0.6,0.5,0.6c-0.2-0.1-0.4-0.2-0.6-0.3c-0.1,0,0.3,0.3,0.2,0.3c-0.2,0-0.5,0-0.7,0c-0.2,0,0.8,0.4,0.6,0.3
			c-0.3,0-0.6-0.1-0.9-0.2c-0.2-0.1,1.2,0.7,0.9,0.7s-0.5-0.3-1.1-0.4s0,0,0.3,0.3s-1-0.4-0.6-0.1s0.7,0.6,0.6,0.7s-0.7-0.3-0.7-0.3
			s0.5,0.5,0.2,0.4c-0.3-0.1-0.5-0.3-0.8-0.4c-0.2-0.1,0.3,0.7,0.6,0.9s-0.2,0-0.1,0.2s-0.3,0.2-0.5,0s0.4,0.6,0.1,0.6
			c-0.2,0-0.4-0.1-0.6-0.2c0,0,0.4,0.4,0,0.3s0.7,0.6,0.1,0.5S7,14.3,7.5,14.5s0.7,0.5,0,0.4S8,15.2,8,15.3s0,0.3-0.5,0.3
			s0.7,0.3,0.5,0.4C7.6,16,7.3,16,7,16c0,0,0.7,0.3,0.4,0.3s-0.6,0,0,0.2s-0.5,0-0.5,0s0.7,0.3,0.5,0.3s0.3,0.3,0.1,0.2
			c-0.2,0-0.3,0-0.5,0.1c0,0,0.7,0.2,0.4,0.2c-0.2,0-0.3,0-0.5,0c0,0,0.7,0.1,0.5,0.2l-0.5,0.2c0,0,0.8,0.1,0.6,0.1
			C7.2,17.9,7,18,6.8,18.1c0,0,0.4,0,0.6,0s0.2,0.2-0.3,0.2s0.5,0.2,0.3,0.2s-0.8,0.2-0.8,0.2s1.1,0.1,0.9,0.2
			c-0.2,0.2-0.4,0.3-0.6,0.4c0,0,0.8,0,0.8,0.2c0,0.1-0.1,0.3-0.2,0.3c-0.1,0,0.2,0.1,0.2,0.2s0.2,1.8,0.2,2.5
			c0,0.8,0.1,1.6,0.5,2.4c0.4,0.7,1.1,2.4,1.6,3.1c0.7,1.2,1.3,2.5,1.8,3.9c-0.7,2.8-1.8,5.5-3.1,8h15.6c0.3-1,0.8-2.7,0.9-3
			C25.5,36.6,26,36.4,26.6,36.5z"/>
		<path class="st2" d="M29.9,21.8c-0.3,0-9.6,1.2-11.1,1.4s-3.5,2.5-4,3.1s-0.6,0.8,0,1s0.5-0.2,0.8-1.3c0,0,0.4-2,4-2.2L30,23.2
			c0,0-0.2,1.1,0.7,1.1c0.4,0,0.5-0.6,0.7-1.3c0.1-0.5,0.2-1.1,0.1-1.6c0-0.9-0.5-0.8-0.9-0.6c-0.3,0.2-0.5,0.5-0.5,0.8
			C30.1,21.8,30.1,21.8,29.9,21.8z"/>
		<path class="st3" d="M18.7,23.9c-0.6-0.1-2.1-0.6-2.8,0.3c-1,1.1-1.1,2.7-0.2,3.8c1.1,1.5,1.5,1.7,2.2,1.9c0.6,0.3,1.3,0.4,2,0.3
			c0.5-0.1,0.8-0.1,0.8-0.3S19.3,24,18.7,23.9z"/>
	</g>
</g>
</svg>
